<?xml version="1.0" encoding="UTF-8"?>
<!-- Generated by Pixelmator Pro 3.3.11 -->
<svg width="551" height="114" viewBox="0 0 551 114" xmlns="http://www.w3.org/2000/svg">
    <g id="Group">
        <g id="g1">
            <path id="Path" fill="#646464" stroke="none" d="M 156.224564 18.443642 C 154.386002 11.57415 148.987076 6.175751 142.117645 4.336876 C 129.679504 1.000648 79.78009 1.000648 79.78009 1.000648 C 79.78009 1.000648 29.881329 1.000648 17.44269 4.336876 C 10.573261 6.175751 5.174856 11.57415 3.335988 18.443642 C -0.000242 30.882225 -0.000243 56.84967 -0.000243 56.84967 C -0.000243 56.84967 -0.000242 82.81723 3.335988 95.255936 C 5.174856 102.125359 10.573261 107.523727 17.44269 109.362274 C 29.881329 112.698692 79.78009 112.698692 79.78009 112.698692 C 79.78009 112.698692 129.679504 112.698692 142.117645 109.362274 C 148.987076 107.523727 154.386002 102.125359 156.224564 95.255936 C 159.560974 82.81723 159.560974 56.84967 159.560974 56.84967 C 159.560974 56.84967 159.547562 30.882225 156.224564 18.443642 Z"/>
            <path id="path1" fill="#ffffff" stroke="none" d="M 63.808937 80.783218 L 105.262321 56.851902 L 63.808937 32.920204 Z"/>
        </g>
        <g id="g2">
            <path id="path2" fill="#282828" stroke="none" visibility="hidden" d="M 193.250793 73.624481 L 175.334976 8.922615 L 190.965439 8.922615 L 197.244003 38.25251 C 198.846298 45.476631 200.015198 51.636837 200.777008 56.733112 L 201.236633 56.733112 C 201.762161 53.08165 202.944504 46.960876 204.770203 38.35762 L 211.271591 8.922615 L 226.902054 8.922615 L 208.762863 73.624481 L 208.762863 104.662025 L 193.237946 104.662025 L 193.237946 73.624481 Z"/>
            <path id="path3" fill="#282828" stroke="none" visibility="hidden" d="M 231.603989 102.610687 C 228.451859 100.482841 226.205612 97.172661 224.865784 92.680733 C 223.539383 88.188789 222.869751 82.225792 222.869751 74.764923 L 222.869751 64.611572 C 222.869751 57.085354 223.631516 51.030479 225.15509 46.472702 C 226.67865 41.914978 229.056137 38.57872 232.287018 36.490303 C 235.518448 34.401886 239.760727 33.351082 245.014999 33.351082 C 250.189972 33.351082 254.327271 34.415009 257.453125 36.542854 C 260.566162 38.670647 262.851532 42.006897 264.296295 46.525253 C 265.741119 51.056736 266.463806 57.085354 266.463806 64.611572 L 266.463806 74.764923 C 266.463806 82.225792 265.754547 88.215042 264.349396 92.733231 C 262.943634 97.264816 260.658325 100.574997 257.505615 102.663185 C 254.353516 104.751938 250.071579 105.80246 244.673203 105.80246 C 239.103943 105.8153 234.756653 104.738533 231.603989 102.610687 Z M 249.283554 91.656456 C 250.15033 89.371117 250.597122 85.653809 250.597122 80.478836 L 250.597122 58.688221 C 250.597122 53.670578 250.163727 49.992813 249.283554 47.681099 C 248.403366 45.356285 246.866959 44.200424 244.659805 44.200424 C 242.532516 44.200424 241.02179 45.356285 240.155045 47.681099 C 239.274857 50.005985 238.841431 53.670578 238.841431 58.688221 L 238.841431 80.478836 C 238.841431 85.653809 239.261444 89.383965 240.102539 91.656456 C 240.943039 93.941803 242.453217 95.084473 244.659805 95.084473 C 246.866959 95.084473 248.403366 93.941803 249.283554 91.656456 Z"/>
            <path id="path4" fill="#282828" stroke="none" visibility="hidden" d="M 317.308228 104.675423 L 304.987946 104.675423 L 303.621857 96.111542 L 303.280609 96.111542 C 299.930786 102.573822 294.9133 105.804695 288.214783 105.804695 C 283.578217 105.804695 280.150177 104.281128 277.943573 101.247414 C 275.737 98.19973 274.633423 93.445305 274.633423 86.983017 L 274.633423 34.719551 L 290.382294 34.719551 L 290.382294 86.063179 C 290.382294 89.189606 290.723511 91.409042 291.406555 92.736023 C 292.089569 94.062431 293.232269 94.732071 294.834564 94.732071 C 296.200623 94.732071 297.514191 94.31208 298.775269 93.471558 C 300.036377 92.630463 300.955627 91.566544 301.572723 90.279778 L 301.572723 34.706429 L 317.308228 34.706429 Z"/>
            <path id="path5" fill="#282828" stroke="none" visibility="hidden" d="M 360.089142 21.595421 L 344.458649 21.595421 L 344.458649 104.672638 L 329.051575 104.672638 L 329.051575 21.595421 L 313.421143 21.595421 L 313.421143 8.933495 L 360.089142 8.933495 Z"/>
            <path id="path6" fill="#282828" stroke="none" visibility="hidden" d="M 398.07373 104.675423 L 385.753418 104.675423 L 384.38736 96.111542 L 384.046112 96.111542 C 380.696838 102.573822 375.679352 105.804695 368.980255 105.804695 C 364.343658 105.804695 360.91568 104.281128 358.709106 101.247414 C 356.502533 98.19973 355.398926 93.445305 355.398926 86.983017 L 355.398926 34.719551 L 371.147766 34.719551 L 371.147766 86.063179 C 371.147766 89.189606 371.489044 91.409042 372.172058 92.736023 C 372.855103 94.062431 373.997742 94.732071 375.600616 94.732071 C 376.966125 94.732071 378.279694 94.31208 379.540771 93.471558 C 380.801819 92.630463 381.72113 91.566544 382.338257 90.279778 L 382.338257 34.706429 L 398.07373 34.706429 Z"/>
            <path id="path7" fill="#282828" stroke="none" visibility="hidden" d="M 450.193146 45.896004 C 449.234222 41.482758 447.697266 38.290985 445.569946 36.307625 C 443.442108 34.32431 440.512848 33.339188 436.782715 33.339188 C 433.893036 33.339188 431.187195 34.153519 428.678406 35.795372 C 426.169708 37.437225 424.225555 39.578194 422.859497 42.244537 L 422.741669 42.244537 L 422.741669 5.388405 L 407.570862 5.388405 L 407.570862 104.660904 L 420.574188 104.660904 L 422.176483 98.041115 L 422.51828 98.041115 C 423.739685 100.405205 425.565399 102.257156 427.995392 103.636627 C 430.425415 105.002701 433.131287 105.685738 436.09967 105.685738 C 441.419281 105.685738 445.346588 103.229492 447.855286 98.329857 C 450.364075 93.417374 451.624573 85.759918 451.624573 75.331238 L 451.624573 64.258606 C 451.624573 56.443207 451.138641 50.309307 450.193146 45.896004 Z M 435.757843 74.437653 C 435.757843 79.533875 435.547852 83.527077 435.127289 86.416702 C 434.707306 89.306328 434.010895 91.368835 433.012878 92.576851 C 432.027679 93.798271 430.687866 94.402557 429.019684 94.402557 C 427.719513 94.402557 426.524353 94.100418 425.420776 93.483284 C 424.317719 92.878998 423.424713 91.959717 422.741669 90.751144 L 422.741669 51.044838 C 423.266663 49.140274 424.186493 47.590401 425.486664 46.368881 C 426.774017 45.147354 428.192535 44.543114 429.702698 44.543114 C 431.305573 44.543114 432.539795 45.173599 433.407166 46.421425 C 434.286804 47.682335 434.891083 49.783936 435.232849 52.752369 C 435.574097 55.720791 435.745026 59.937008 435.745026 65.414124 L 435.745026 74.437653 Z"/>
            <path id="path8" fill="#282828" stroke="none" visibility="hidden" d="M 473.9664 78.46994 C 473.9664 82.961884 474.097626 86.324554 474.360687 88.570801 C 474.623199 90.81649 475.174988 92.445602 476.015503 93.483284 C 476.856049 94.507553 478.143341 95.019684 479.890289 95.019684 C 482.241547 95.019684 483.870087 94.100418 484.736877 92.274712 C 485.617065 90.449005 486.090088 87.401878 486.168823 83.146187 L 499.750214 83.94706 C 499.828949 84.551346 499.868073 85.391876 499.868073 86.455795 C 499.868073 92.918091 498.094818 97.751823 494.561829 100.943596 C 491.028839 104.135361 486.0242 105.737671 479.56192 105.737671 C 471.799469 105.737671 466.36142 103.307686 463.248413 98.434853 C 460.122559 93.562027 458.572723 86.035812 458.572723 75.842804 L 458.572723 63.62751 C 458.572723 53.13303 460.188416 45.462341 463.419312 40.628769 C 466.650726 35.795151 472.180328 33.378334 480.021545 33.378334 C 485.419891 33.378334 489.570618 34.363457 492.460266 36.346825 C 495.349884 38.330132 497.385559 41.403671 498.567871 45.593689 C 499.750214 49.783661 500.341125 55.562969 500.341125 62.944477 L 500.341125 74.923538 L 473.9664 74.923538 Z M 475.962982 45.501762 C 475.16156 46.486832 474.636627 48.102425 474.360687 50.348454 C 474.097626 52.594536 473.9664 55.996414 473.9664 60.567539 L 473.9664 65.585022 L 485.485809 65.585022 L 485.485809 60.567539 C 485.485809 56.075214 485.328339 52.673336 485.026184 50.348454 C 484.72403 48.023628 484.172272 46.394897 483.370819 45.436089 C 482.569916 44.490395 481.335114 44.004395 479.666901 44.004395 C 477.98587 44.017517 476.751038 44.516647 475.962982 45.501762 Z"/>
        </g>
        <text id="RETRO" xml:space="preserve" x="164" y="108" font-family="Toppan Bunkyu Midashi Gothic" font-size="115" font-weight="700" fill="#000000">RETRO</text>
    </g>
</svg>
